<?xml version="1.0" standalone="no"?>
<!DOCTYPE svg PUBLIC "-//W3C//DTD SVG 20010904//EN"
 "http://www.w3.org/TR/2001/REC-SVG-20010904/DTD/svg10.dtd">
<svg version="1.0" xmlns="http://www.w3.org/2000/svg"
 width="700.000000pt" height="700.000000pt" viewBox="0 0 700.000000 700.000000"
 preserveAspectRatio="xMidYMid meet">
<metadata>
Created by potrace 1.11, written by Peter Selinger 2001-2013
</metadata>
<g transform="translate(0.000000,700.000000) scale(0.100000,-0.100000)"
fill="#000000" stroke="none">
<path d="M4220 6227 c-3 -3 -23 -8 -45 -11 -102 -16 -235 -74 -302 -131 -7 -5
-24 -19 -39 -30 -45 -34 -142 -162 -174 -230 -128 -268 -78 -590 123 -802 64
-67 149 -129 222 -162 17 -7 37 -17 45 -21 13 -6 43 -14 155 -40 98 -22 299
11 418 70 190 95 336 282 382 489 81 370 -137 734 -505 843 -61 18 -269 37
-280 25z"/>
<path d="M1926 5903 c-132 -22 -276 -94 -375 -187 -85 -80 -166 -220 -200
-348 -24 -89 -22 -261 3 -353 32 -115 109 -250 190 -330 89 -89 251 -173 371
-193 54 -9 221 -9 268 0 329 66 573 354 581 687 6 253 -112 477 -324 616 -158
104 -328 139 -514 108z"/>
<path d="M5669 4405 c-3 -2 -23 -7 -44 -11 -98 -15 -258 -100 -341 -180 -93
-89 -162 -204 -200 -329 -27 -91 -28 -273 -3 -367 112 -410 528 -636 925 -503
107 36 190 89 279 179 215 216 268 529 137 806 -85 181 -231 309 -427 376 -65
22 -103 27 -201 31 -66 2 -123 1 -125 -2z"/>
<path d="M1120 3774 c-290 -49 -516 -255 -589 -534 -25 -94 -23 -285 4 -370
63 -204 196 -361 378 -450 205 -99 419 -98 626 2 91 44 116 62 192 137 73 73
94 102 133 182 78 160 97 312 61 489 -8 38 -40 120 -67 172 -91 172 -259 304
-453 355 -66 18 -224 27 -285 17z"/>
<path d="M4795 2264 c-191 -34 -365 -146 -469 -303 -91 -136 -126 -257 -122
-424 5 -188 69 -338 201 -473 111 -113 195 -163 338 -199 71 -18 112 -22 191
-20 107 3 120 5 200 30 254 80 457 317 493 575 33 230 -40 449 -202 614 -161
164 -402 241 -630 200z"/>
<path d="M2568 1955 c-2 -2 -23 -6 -48 -9 -175 -23 -368 -149 -473 -309 -188
-286 -150 -667 90 -902 139 -136 305 -206 493 -208 211 -2 370 61 516 203 80
78 169 226 188 311 22 98 26 134 25 209 -4 184 -81 374 -203 495 -84 83 -217
160 -332 190 -51 14 -246 29 -256 20z"/>
</g>
</svg>
