<svg width="57" height="21" viewBox="0 0 57 21" fill="none" xmlns="http://www.w3.org/2000/svg">
<path d="M2.20523 15.4707V6.30371H0.667149V4.77441H5.03531C6.31852 4.77441 7.27945 4.86523 7.91813 5.04688C8.5568 5.22852 9.09 5.6416 9.51773 6.28613C9.95133 6.9248 10.1681 7.68066 10.1681 8.55371C10.1681 9.25098 10.0246 9.87793 9.73746 10.4346C9.45621 10.9854 9.10465 11.3926 8.68277 11.6562C8.26676 11.9199 7.79508 12.0986 7.26773 12.1924C6.74625 12.2803 5.95523 12.3242 4.89469 12.3242H4.05094V15.4707H5.63297V17H0.667149V15.4707H2.20523ZM4.05094 10.8477H5.10563C6.3068 10.8477 7.13883 10.6777 7.60172 10.3379C8.06461 9.99219 8.29605 9.38574 8.29605 8.51855C8.29605 7.96777 8.17301 7.51074 7.92691 7.14746C7.68082 6.78418 7.37613 6.55273 7.01285 6.45312C6.64957 6.35352 6.04313 6.30371 5.19352 6.30371H4.05094V10.8477ZM20.3012 15.5146V17H17.3832V15.9629C16.5746 16.748 15.6723 17.1406 14.6762 17.1406C13.9028 17.1406 13.2289 16.8887 12.6547 16.3848C12.0864 15.8809 11.8022 15.2363 11.8022 14.4512C11.8022 13.6602 12.1039 13.0039 12.7075 12.4824C13.3168 11.9609 14.0493 11.7002 14.9047 11.7002C15.7016 11.7002 16.4721 11.9404 17.2163 12.4209V11.5771C17.2163 11.1436 17.1752 10.8096 17.0932 10.5752C17.0112 10.3408 16.8178 10.1299 16.5131 9.94238C16.2143 9.75488 15.8217 9.66113 15.3354 9.66113C14.4975 9.66113 13.8911 9.99512 13.5161 10.6631L11.9164 10.2412C12.6254 8.91699 13.85 8.25488 15.5903 8.25488C16.2289 8.25488 16.7797 8.34277 17.2426 8.51855C17.7114 8.68848 18.06 8.91113 18.2885 9.18652C18.517 9.45605 18.6694 9.74902 18.7455 10.0654C18.8276 10.3818 18.8686 10.8857 18.8686 11.5771V15.5146H20.3012ZM17.2163 13.8359C16.4955 13.2734 15.7661 12.9922 15.0278 12.9922C14.5649 12.9922 14.1782 13.127 13.8676 13.3965C13.5571 13.666 13.4018 14.0146 13.4018 14.4424C13.4018 14.8408 13.5366 15.1748 13.8061 15.4443C14.0815 15.7139 14.4536 15.8486 14.9223 15.8486C15.7309 15.8486 16.4955 15.5088 17.2163 14.8291V13.8359ZM23.1306 15.5146V6.25977H21.6189V4.77441H24.8005V15.5146H26.1013V17H21.6189V15.5146H23.1306ZM28.9043 5.60059C28.9043 5.33105 28.998 5.09668 29.1855 4.89746C29.3789 4.69824 29.6221 4.59863 29.915 4.59863C30.1904 4.59863 30.4277 4.69531 30.627 4.88867C30.8262 5.08203 30.9258 5.31934 30.9258 5.60059C30.9258 5.88184 30.8262 6.12207 30.627 6.32129C30.4277 6.51465 30.1904 6.61133 29.915 6.61133C29.6338 6.61133 29.3936 6.51172 29.1943 6.3125C29.001 6.11328 28.9043 5.87598 28.9043 5.60059ZM29.1416 15.5146V9.97754H27.8145V8.49219H30.8115V15.5146H32.1211V17H27.8145V15.5146H29.1416ZM33.7552 9.97754V8.49219H34.8626V7.18262L36.5325 5.65332V8.49219H38.1057V9.97754H36.5325V14.1084C36.5325 14.7705 36.5677 15.1807 36.638 15.3389C36.7141 15.4912 36.8987 15.5674 37.1917 15.5674C37.5022 15.5674 37.8069 15.5088 38.1057 15.3916V16.9121C37.678 17.0645 37.2503 17.1406 36.8225 17.1406C36.3128 17.1406 35.8997 17.0293 35.5833 16.8066C35.2669 16.5781 35.0677 16.2939 34.9856 15.9541C34.9036 15.6143 34.8626 15.0283 34.8626 14.1963V9.97754H33.7552ZM41.4712 15.5146V9.97754H39.7574V8.49219H42.8072V10.4082C42.9947 9.91016 43.2554 9.49707 43.5894 9.16895C43.9234 8.84082 44.275 8.62402 44.6441 8.51855C45.0191 8.41309 45.5289 8.36035 46.1734 8.36035H46.6129V10.0479H46.2789C45.4293 10.0479 44.7935 10.1328 44.3716 10.3027C43.9556 10.4727 43.6451 10.7832 43.44 11.2344C43.2408 11.6797 43.1412 12.4824 43.1412 13.6426V15.5146H44.9957V17H39.7574V15.5146H41.4712ZM56.4559 15.5146V17H53.5379V15.9629C52.7293 16.748 51.827 17.1406 50.8309 17.1406C50.0575 17.1406 49.3836 16.8887 48.8094 16.3848C48.2411 15.8809 47.9569 15.2363 47.9569 14.4512C47.9569 13.6602 48.2586 13.0039 48.8621 12.4824C49.4715 11.9609 50.2039 11.7002 51.0594 11.7002C51.8563 11.7002 52.6268 11.9404 53.3709 12.4209V11.5771C53.3709 11.1436 53.3299 10.8096 53.2479 10.5752C53.1659 10.3408 52.9725 10.1299 52.6678 9.94238C52.369 9.75488 51.9764 9.66113 51.4901 9.66113C50.6522 9.66113 50.0457 9.99512 49.6707 10.6631L48.0711 10.2412C48.7801 8.91699 50.0047 8.25488 51.745 8.25488C52.3836 8.25488 52.9344 8.34277 53.3973 8.51855C53.8661 8.68848 54.2147 8.91113 54.4432 9.18652C54.6717 9.45605 54.8241 9.74902 54.9002 10.0654C54.9823 10.3818 55.0233 10.8857 55.0233 11.5771V15.5146H56.4559ZM53.3709 13.8359C52.6502 13.2734 51.9207 12.9922 51.1825 12.9922C50.7196 12.9922 50.3329 13.127 50.0223 13.3965C49.7118 13.666 49.5565 14.0146 49.5565 14.4424C49.5565 14.8408 49.6912 15.1748 49.9608 15.4443C50.2362 15.7139 50.6082 15.8486 51.077 15.8486C51.8856 15.8486 52.6502 15.5088 53.3709 14.8291V13.8359Z" fill="#F5F2F2"/>
</svg>
