<?xml version="1.0" encoding="utf-8"?>
<!-- Generator: Adobe Illustrator 21.1.0, SVG Export Plug-In . SVG Version: 6.00 Build 0)  -->
<svg version="1.1" id="Слой_1" xmlns="http://www.w3.org/2000/svg" xmlns:xlink="http://www.w3.org/1999/xlink" x="0px" y="0px"
	 viewBox="0 0 40 40" style="enable-background:new 0 0 40 40;" xml:space="preserve">
<style type="text/css">
	.st0{fill:#E4FF96;}
	.st1{fill:#6AF6CC;}
	.st2{fill:#7D1FC7;}
	.st3{fill:#2D78E8;}
	.st4{fill:#FC9D9D;}
	.st5{fill:#FBB25C;}
</style>
<g>
	<g>
		<ellipse transform="matrix(0.9782 -0.2078 0.2078 0.9782 -1.8828 2.6563)" class="st0" cx="11.7" cy="10.3" rx="4.1" ry="4.1"/>
	</g>
	<g>
		<ellipse transform="matrix(0.9782 -0.2078 0.2078 0.9782 -1.2308 5.3007)" class="st1" cx="24.6" cy="8.5" rx="4.1" ry="4.1"/>
	</g>
	<g>
		<ellipse transform="matrix(0.9782 -0.2078 0.2078 0.9782 -5.8465 6.5101)" class="st2" cx="28.1" cy="31.1" rx="4.1" ry="4.1"/>
	</g>
	<g>
		<ellipse transform="matrix(0.9782 -0.2078 0.2078 0.9782 -3.2005 7.265)" class="st3" cx="33" cy="18.9" rx="4.1" ry="4.1"/>
	</g>
	<g>
		<ellipse transform="matrix(0.9782 -0.2078 0.2078 0.9782 -6.4985 3.8658)" class="st4" cx="15.1" cy="32.9" rx="4.1" ry="4.1"/>
	</g>
	<g>
		<ellipse transform="matrix(0.9782 -0.2078 0.2078 0.9782 -4.5166 1.9389)" class="st5" cx="7" cy="22.5" rx="4.1" ry="4.1"/>
	</g>
</g>
<g>
</g>
<g>
</g>
<g>
</g>
<g>
</g>
<g>
</g>
<g>
</g>
<g>
</g>
<g>
</g>
<g>
</g>
<g>
</g>
<g>
</g>
<g>
</g>
<g>
</g>
<g>
</g>
<g>
</g>
</svg>
